<svg width="15" height="15" viewBox="0 0 15 15" fill="none" xmlns="http://www.w3.org/2000/svg">
<g id="fxemoji:present" clip-path="url(#clip0_278_190)">
<path id="Vector" d="M13.8419 11.401L8.00504 14.6406C7.72502 14.796 7.26682 14.796 6.98683 14.6406L1.14992 11.401C1.00991 11.3233 0.939922 11.2209 0.939922 11.1184H0.87793V3.88147H14.0519V11.1184C14.0519 11.2209 13.982 11.3233 13.8419 11.401Z" fill="#FF473E"/>
<path id="Vector_2" d="M14.0519 3.8815V11.1185C14.0519 11.2209 13.9819 11.3233 13.8419 11.4011L8.00503 14.6407C7.85942 14.7215 7.66568 14.76 7.47382 14.7566C7.47836 11.1328 7.58137 7.50432 7.46875 3.88147L14.0519 3.8815Z" fill="#FF6E83"/>
<path id="Vector_3" d="M6.98683 7.40371L1.14996 4.16409C0.869937 4.00867 0.869937 3.75437 1.14996 3.59895L6.98683 0.359363C7.26685 0.203943 7.72505 0.203943 8.00504 0.359363L13.8419 3.59898C14.122 3.7544 14.122 4.0087 13.8419 4.16412L8.00507 7.40371C7.72505 7.55913 7.26685 7.55913 6.98683 7.40371Z" fill="#FFA9BA"/>
<path id="Vector_4" d="M11.4577 2.17158C11.4574 2.20583 11.4479 2.23936 11.4301 2.26865C11.4124 2.29794 11.3871 2.3219 11.3568 2.33802L4.36327 6.0659C4.35364 6.07104 4.34358 6.07533 4.33321 6.07873L4.30957 6.09195V13.0491C4.30957 13.0822 4.30092 13.1148 4.28447 13.1436C4.26801 13.1724 4.24433 13.1964 4.21576 13.2132C4.18719 13.23 4.15472 13.2391 4.12157 13.2395C4.08842 13.2399 4.05573 13.2317 4.02674 13.2156L2.85486 12.5652C2.82515 12.5487 2.8004 12.5246 2.78316 12.4953C2.76592 12.466 2.75683 12.4326 2.75684 12.3987V5.62859C2.75687 5.51242 2.78298 5.39774 2.83324 5.293C2.88351 5.18827 2.95664 5.09616 3.04726 5.02346L3.05417 5.01807C3.06952 5.00606 3.08408 4.99548 3.09905 4.98537C3.1213 4.97027 3.1443 4.95631 3.16796 4.94354L9.95722 1.32455C9.98527 1.3096 10.0166 1.3019 10.0484 1.30217C10.0802 1.30244 10.1114 1.31067 10.1392 1.32611L11.3597 2.00348C11.3896 2.0201 11.4145 2.04449 11.4318 2.07407C11.449 2.10366 11.458 2.13734 11.4577 2.17158ZM12.1026 5.11683C12.0583 5.0663 12.0076 5.02176 11.9518 4.98432C11.9481 4.98183 11.9445 4.97934 11.9401 4.97653C11.922 4.96471 11.9034 4.95368 11.8843 4.94345L5.09511 1.32452C5.06706 1.30956 5.03571 1.30186 5.00391 1.30213C4.97212 1.3024 4.94091 1.31063 4.91312 1.32608L3.69264 2.00345C3.66268 2.02006 3.63776 2.04445 3.6205 2.07404C3.60324 2.10363 3.59429 2.13733 3.59458 2.17158C3.59487 2.20583 3.6044 2.23937 3.62215 2.26867C3.63991 2.29796 3.66524 2.32192 3.69548 2.33802L10.6891 6.0659C10.6988 6.07109 10.7089 6.07536 10.7191 6.07876L10.7428 6.09198V13.0491C10.7428 13.0823 10.7514 13.1148 10.7679 13.1436C10.7843 13.1724 10.808 13.1964 10.8366 13.2132C10.8651 13.23 10.8976 13.2391 10.9308 13.2395C10.9639 13.24 10.9966 13.2317 11.0256 13.2156L12.1975 12.5652C12.2272 12.5487 12.2519 12.5246 12.2692 12.4953C12.2864 12.466 12.2955 12.4327 12.2955 12.3987V5.62859C12.2954 5.44025 12.2268 5.25837 12.1026 5.11683Z" fill="#FFD4DE"/>
<path id="Vector_5" d="M9.83208 4.01612C9.83208 4.49398 9.24597 4.8408 8.43846 4.8408C8.10913 4.8408 7.81672 4.78305 7.5858 4.68233C7.55631 4.66953 7.52437 4.66339 7.49224 4.66435C7.46011 4.6653 7.42858 4.67333 7.39991 4.68787C7.15924 4.80933 6.84011 4.88011 6.47565 4.88011C5.66814 4.88011 5.08203 4.5333 5.08203 4.05543C5.08203 3.81485 5.23063 3.60751 5.48123 3.46088C5.57996 3.40314 5.62142 3.27989 5.57252 3.1765C5.3939 2.79875 5.39964 2.44434 5.61872 2.22526C5.73219 2.11179 5.88758 2.05182 6.06814 2.05182C6.19499 2.05182 6.33274 2.08179 6.47428 2.13807C6.52865 2.15976 6.58938 2.15919 6.64334 2.13648C6.6973 2.11378 6.74016 2.07076 6.76268 2.01672C6.90813 1.66953 7.14881 1.45569 7.43738 1.45569C7.72104 1.45569 7.95849 1.66226 8.10465 1.99906C8.15316 2.11085 8.28122 2.1642 8.39387 2.11771C8.54176 2.05668 8.68584 2.02405 8.81815 2.02405C9.04622 2.02405 9.18843 2.11835 9.26756 2.19749C9.48292 2.41285 9.49218 2.75893 9.32278 3.12945C9.27526 3.23339 9.31739 3.35638 9.41688 3.4126C9.6771 3.55961 9.83208 3.77052 9.83208 4.01612Z" fill="#FF6E83"/>
</g>
<defs>
<clipPath id="clip0_278_190">
<rect width="15" height="15" fill="white"/>
</clipPath>
</defs>
</svg>
